*
*
G04 PADS VX.2.4 Build Number: 11282995 generated Gerber (RS-274-X) file*
G04 PC Version=2.1*
*
%IN "AD-29_V103-0702.pcb"*%
*
%MOIN*%
*
%FSLAX35Y35*%
*
*
*
*
G04 PC Standard Apertures*
*
*
G04 Thermal Relief Aperture macro.*
%AMTER*
1,1,$1,0,0*
1,0,$1-$2,0,0*
21,0,$3,$4,0,0,45*
21,0,$3,$4,0,0,135*
%
*
*
G04 Annular Aperture macro.*
%AMANN*
1,1,$1,0,0*
1,0,$2,0,0*
%
*
*
G04 Odd Aperture macro.*
%AMODD*
1,1,$1,0,0*
1,0,$1-0.005,0,0*
%
*
*
G04 PC Custom Aperture Macros*
*
*
*
*
*
*
G04 PC Aperture Table*
*
%ADD010C,0.001*%
%ADD030C,0.01969*%
%ADD086R,0.07X0.07*%
%ADD087C,0.07*%
%ADD089R,0.10842X0.07299*%
%ADD090O,0.10842X0.07299*%
%ADD092R,0.07299X0.10842*%
%ADD093O,0.07299X0.10842*%
%ADD146O,0.12811X0.14386*%
%ADD151R,0.12811X0.12811*%
%ADD152C,0.12811*%
%ADD153R,0.06512X0.08087*%
%ADD154O,0.06512X0.08087*%
%ADD156C,0.20685*%
*
*
*
*
G04 PC Circuitry*
G04 Layer Name AD-29_V103-0702.pcb - circuitry*
%LPD*%
*
*
G04 PC Custom Flashes*
G04 Layer Name AD-29_V103-0702.pcb - flashes*
%LPD*%
*
*
G04 PC Circuitry*
G04 Layer Name AD-29_V103-0702.pcb - circuitry*
%LPD*%
*
G54D10*
G54D30*
G01X284252Y1155512D02*
X1071654D01*
Y368110*
X284252*
Y1155512*
G54D86*
X744436Y836289D03*
G54D87*
Y846289D03*
Y856289D03*
Y866289D03*
G54D89*
X773046Y846224D03*
X594497Y856867D03*
Y887576D03*
X716257Y945122D03*
X716154Y893040D03*
G54D90*
X773046Y856224D03*
Y866224D03*
X594497Y866867D03*
Y897576D03*
X716257Y935122D03*
Y925122D03*
X716154Y883039D03*
Y873040D03*
G54D92*
X651479Y1145696D03*
X953504Y1086822D03*
X658896Y1055364D03*
X869646Y953937D03*
X953504D03*
X1004291Y1086822D03*
Y953937D03*
X818071Y570472D03*
X953504Y698031D03*
X818071Y824409D03*
X869646Y570472D03*
Y698031D03*
X818491Y447540D03*
X953924D03*
X1004711D03*
X870066D03*
X595129Y669731D03*
X674016Y1141339D03*
X1004291Y824409D03*
Y698031D03*
Y570472D03*
X953504Y824409D03*
Y570472D03*
X869646Y824409D03*
X818071Y953937D03*
Y698031D03*
G54D93*
X641478Y1145696D03*
X963504Y1086822D03*
X973504D03*
X983504D03*
X648895Y1055364D03*
X638896D03*
X879646Y953937D03*
X889646D03*
X899646D03*
X963504D03*
X973504D03*
X983504D03*
X1014291Y1086822D03*
X1024291D03*
X1034291D03*
X1014291Y953937D03*
X1024291D03*
X1034291D03*
X828071Y570472D03*
X838071D03*
X848071D03*
X963504Y698031D03*
X973504D03*
X983504D03*
X828071Y824409D03*
X838071D03*
X848071D03*
X879646Y570472D03*
X889646D03*
X899646D03*
X879646Y698031D03*
X889646D03*
X899646D03*
X828491Y447540D03*
X838491D03*
X848491D03*
X963924D03*
X973924D03*
X983924D03*
X1014711D03*
X1024711D03*
X1034711D03*
X880066D03*
X890066D03*
X900066D03*
X605129Y669731D03*
X615129D03*
X625129D03*
X635129D03*
X684016Y1141339D03*
X1014291Y824409D03*
X1024291D03*
X1034291D03*
X1014291Y698031D03*
X1024291D03*
X1034291D03*
X1014291Y570472D03*
X1024291D03*
X1034291D03*
X963504Y824409D03*
X973504D03*
X983504D03*
X963504Y570472D03*
X973504D03*
X983504D03*
X879646Y824409D03*
X889646D03*
X899646D03*
X828071Y953937D03*
X838071D03*
X848071D03*
X828071Y698031D03*
X838071D03*
X848071D03*
G54D146*
X717888Y1055681D03*
X733479D03*
X749069D03*
X764660D03*
X780250D03*
X795841D03*
X816492D03*
X832083D03*
X847673D03*
X863264D03*
X878854D03*
X894445D03*
G54D151*
X903826Y1133921D03*
X512598Y965354D03*
Y450787D03*
X596850Y578740D03*
X512598D03*
X649606D03*
X459843Y450787D03*
X392913D03*
X340551D03*
X764961D03*
X710630D03*
X649606D03*
X596850D03*
X392913Y578740D03*
X340551D03*
Y709449D03*
X392913D03*
X512598D03*
Y835827D03*
X392913Y965354D03*
X459843Y709449D03*
X340551Y835827D03*
Y1089370D03*
Y965354D03*
X459843Y835827D03*
X392913D03*
X512598Y1089370D03*
X392913D03*
X459843D03*
X801142Y1134055D03*
X765106Y578865D03*
X702787Y1134260D03*
X768124Y1134079D03*
X834265Y1133685D03*
X735394Y1134449D03*
X459843Y578740D03*
Y965354D03*
X710630Y578740D03*
G54D152*
X919456Y1134118D03*
X497008Y965354D03*
X481417D03*
X497008Y450787D03*
X481417D03*
X581260Y578740D03*
X565669D03*
X497008D03*
X481417D03*
X634016D03*
X618425D03*
X444252Y450787D03*
X428661D03*
X377323D03*
X361732D03*
X324961D03*
X309370D03*
X749370D03*
X733780D03*
X695039D03*
X679449D03*
X634016D03*
X618425D03*
X581260D03*
X565669D03*
X377323Y578740D03*
X361732D03*
X324961D03*
X309370D03*
X324961Y709449D03*
X309370D03*
X377323D03*
X361732D03*
X497008D03*
X481417D03*
X497008Y835827D03*
X481417D03*
X377323Y965354D03*
X361732D03*
X444252Y709449D03*
X428661D03*
X324961Y835827D03*
X309370D03*
X324961Y1089370D03*
X309370D03*
X324961Y965354D03*
X309370D03*
X444252Y835827D03*
X428661D03*
X377323D03*
X361732D03*
X497008Y1089370D03*
X481417D03*
X377323D03*
X361732D03*
X444252D03*
X428661D03*
X816772Y1134252D03*
X749516Y578865D03*
X733925D03*
X561811Y1125197D03*
Y1144882D03*
X607480Y1125197D03*
Y1144882D03*
X718417Y1134457D03*
X783754Y1134276D03*
X849895Y1133882D03*
X751024Y1134646D03*
X444252Y578740D03*
X428661D03*
X444252Y965354D03*
X428661D03*
X695039Y578740D03*
X679449D03*
G54D153*
X869528Y1140945D03*
G54D154*
X879528D03*
G54D156*
X303937Y1135827D03*
X1051969D03*
X303937Y387795D03*
X1051969D03*
X0Y0D02*
M02*
